<svg xmlns="http://www.w3.org/2000/svg" width="64" height="64" viewBox="0 0 16 16" shape-rendering="crispEdges">
  <!-- 柄（ブラウン） -->
  <rect x="7" y="5" width="1" height="1" fill="#8B5A2B" />
  <rect x="7" y="6" width="1" height="1" fill="#8B5A2B" />
  <rect x="7" y="7" width="1" height="1" fill="#A66A33" />
  <rect x="7" y="8" width="1" height="1" fill="#A66A33" />
  <rect x="7" y="9" width="1" height="1" fill="#C07A3B" />
  <rect x="7" y="10" width="1" height="1" fill="#C07A3B" />
  <rect x="7" y="11" width="1" height="1" fill="#D08B45" />
  <rect x="7" y="12" width="1" height="1" fill="#D08B45" />

  <!-- 柄の持ち手の下端 -->
  <rect x="6" y="13" width="3" height="1" fill="#6B3A1B" />

  <!-- ピッケルの頭（グレー系） -->
  <!-- 中心部 -->
  <rect x="6" y="4" width="3" height="1" fill="#C0C0C0" />
  <rect x="6" y="3" width="2" height="1" fill="#D8D8D8" />

  <!-- 左側の刃 -->
  <rect x="5" y="4" width="1" height="1" fill="#B0B0B0" />
  <rect x="4" y="4" width="1" height="1" fill="#9A9A9A" />
  <rect x="3" y="5" width="1" height="1" fill="#808080" />

  <!-- 右側の刃 -->
  <rect x="9" y="4" width="1" height="1" fill="#B0B0B0" />
  <rect x="10" y="4" width="1" height="1" fill="#9A9A9A" />
  <rect x="11" y="5" width="1" height="1" fill="#808080" />

  <!-- 頭のハイライト -->
  <rect x="6" y="2" width="1" height="1" fill="#E8E8E8" />
  <rect x="7" y="3" width="1" height="1" fill="#E8E8E8" />
</svg>
